<svg width="27" height="27" fill="none" xmlns="http://www.w3.org/2000/svg"><rect x="1" y="1" width="25" height="25" rx="6" stroke="#B4B4B4" stroke-width="2"/><path d="M17.364 11.388v2.127H10v-2.127h7.364ZM12.019 22V9.81c0-.85.178-1.556.535-2.117.356-.568.828-.99 1.416-1.268A4.357 4.357 0 0 1 15.888 6c.509 0 .944.044 1.306.133.362.083.63.16.806.23l-.594 2.145a11.714 11.714 0 0 0-.458-.124 2.504 2.504 0 0 0-.679-.08c-.616 0-1.057.16-1.323.479-.26.319-.39.78-.39 1.382V22h-2.537Z" fill="#B4B4B4"/></svg>