<svg width="27" height="27" xmlns="http://www.w3.org/2000/svg"><defs><clipPath id="a"><path d="M0 7a7 7 0 0 1 7-7h13a7 7 0 0 1 7 7v13a7 7 0 0 1-7 7H7a7 7 0 0 1-7-7z" fill="#fff"/></clipPath><clipPath id="b"><path d="M7 13.5a6.5 6.5 0 1 1 13 0 6.5 6.5 0 1 1-13 0z" fill="#fff"/></clipPath></defs><path d="M0 7a7 7 0 0 1 7-7h13a7 7 0 0 1 7 7v13a7 7 0 0 1-7 7H7a7 7 0 0 1-7-7z" fill="none" stroke="#b4b4b4" stroke-miterlimit="20" stroke-width="4" clip-path="url(&quot;#a&quot;)"/><path d="M7 13.5a6.5 6.5 0 1 1 13 0 6.5 6.5 0 1 1-13 0z" fill="none" stroke="#b4b4b4" stroke-miterlimit="20" stroke-width="4" clip-path="url(&quot;#b&quot;)"/><path d="M23 6.5a1.5 1.5 0 1 1-3 0 1.5 1.5 0 0 1 3 0z" fill="#b4b4b4"/></svg>