<?xml version="1.0" encoding="utf-8"?><svg viewBox="0 0 240 39" xmlns="http://www.w3.org/2000/svg" xmlns:xlink="http://www.w3.org/1999/xlink"><style>:root>svg{display:none}:root>svg:target{display:block}</style><svg fill="none" viewBox="0 0 23 23" id="alarm" xmlns="http://www.w3.org/2000/svg"><path d="M12.194 5l-.138 9.271h-1.612L10.306 5h1.888zm-.944 13c-.343 0-.637-.111-.882-.334a1.043 1.043 0 01-.368-.8c0-.31.123-.577.368-.8a1.27 1.27 0 01.882-.333c.343 0 .637.11.882.333.245.223.368.49.368.8a.995.995 0 01-.174.567 1.24 1.24 0 01-.451.416c-.185.1-.393.151-.625.151z" fill="#fff"/><circle cx="11.5" cy="11.5" r="10.85" stroke="#fff" stroke-width="1.3"/></svg><svg fill="none" viewBox="0 0 8 5" id="arrow_down" xmlns="http://www.w3.org/2000/svg"><path d="M7.375 1l-3 3-3-3" stroke="#FF5C00" stroke-linecap="round" stroke-linejoin="round"/></svg><svg viewBox="0 0 8 5" id="arrow_up" xmlns="http://www.w3.org/2000/svg"><path d="M1.4 4l3-3 3 3" fill="none" stroke="#ff5c00" stroke-linecap="round" stroke-linejoin="round"/></svg><svg fill="none" viewBox="0 0 16 7" id="list" xmlns="http://www.w3.org/2000/svg"><path fill-rule="evenodd" clip-rule="evenodd" d="M16 1.444H0V0h16v1.444zM9.846 7H0V5.556h9.846V7z" fill="#0A61E4"/></svg><svg fill="none" viewBox="0 0 240 39" id="rate" xmlns="http://www.w3.org/2000/svg"><path d="M20 0l4.702 13.19 14.32.284-11.413 8.436 4.147 13.366L20 27.3 8.244 35.276l4.148-13.366L.979 13.474l14.319-.284L20 0zm50 0l4.702 13.19 14.32.284-11.413 8.436 4.147 13.366L70 27.3l-11.756 7.976 4.148-13.366-11.413-8.436 14.319-.284L70 0zm50 0l4.702 13.19 14.319.284-11.413 8.436 4.148 13.366L120 27.3l-11.756 7.976 4.148-13.366-11.413-8.436 14.319-.284L120 0zm50 0l4.702 13.19 14.319.284-11.413 8.436 4.148 13.366L170 27.3l-11.756 7.976 4.148-13.366-11.413-8.436 14.319-.284L170 0z" fill="#FF5C00"/><path d="M220 0l4.702 13.19 14.319.284-11.413 8.436 4.148 13.366L220 27.3l-11.756 7.976 4.148-13.366-11.413-8.436 14.319-.284L220 0z" fill="#DCDCDC"/><path d="M220 0l-4.702 13.19-14.319.284 11.413 8.436-4.148 13.366L220 27.3V0z" fill="#FF5C00"/></svg><svg fill="none" viewBox="0 0 16 16" id="telegarm" xmlns="http://www.w3.org/2000/svg"><path fill-rule="evenodd" clip-rule="evenodd" d="M.8 8a7.2 7.2 0 1014.4 0A7.2 7.2 0 00.8 8zM8 0a8 8 0 100 16A8 8 0 008 0z" fill="#B4B4B4"/><path d="M11.006 4.332s.79-.322.723.461c-.022.325-.22 1.456-.371 2.679l-.527 3.625s-.044.532-.438.623c-.395.092-.988-.322-1.097-.416-.088-.068-1.644-1.107-2.193-1.617-.154-.14-.329-.417.023-.739L9.428 6.64c.264-.277.526-.924-.571-.138l-3.07 2.195s-.351.23-1.008.024L3.353 8.26s-.526-.346.372-.694c2.194-1.086 4.892-2.193 7.281-3.233z" fill="#B4B4B4"/></svg><svg fill="none" viewBox="0 0 16 15" id="viber" xmlns="http://www.w3.org/2000/svg"><path d="M8.622 4.274c1.366-.012 2.618 1.152 2.791 2.593.003.029.008.06.014.093.012.071.024.145.024.22 0 .295-.208.374-.331.395a.383.383 0 01-.3-.057c-.134-.098-.157-.27-.176-.409-.006-.04-.011-.078-.018-.11-.29-1.296-.745-1.732-2.029-1.945a1.178 1.178 0 00-.11-.01c-.154-.01-.474-.029-.474-.372a.59.59 0 01.008-.091c.048-.32.34-.31.48-.305.04.001.077.003.102 0a.12.12 0 01.019-.002z" fill="#B4B4B4"/><path d="M11.914 7.263c-.003-.038-.005-.074-.01-.105-.327-2.126-1.335-3.104-3.478-3.376a1.271 1.271 0 00-.128-.006c-.167-.002-.516-.008-.523-.382v-.012c0-.117.035-.21.105-.277.122-.116.303-.108.448-.102l.1.003c2.191-.027 4.179 1.87 4.253 4.06l-.001.027a.196.196 0 00-.002.026c0 .022.002.049.004.077.002.035.005.074.005.113 0 .35-.248.416-.396.424-.341.02-.365-.31-.377-.47zM5.656 3.885c.035.046.07.092.106.136.187.232.359.48.525.718l.104.149c.215.306.32.58.32.84 0 .35-.194.656-.575.908-.17.112-.252.247-.252.414 0 .099.028.21.084.333.448.988 1.135 1.694 2.041 2.097.438.195.725.131.958-.212.132-.195.378-.557.85-.532.535.03 2.146 1.211 2.33 1.709.077.21.078.432.001.66-.192.571-.53.982-.977 1.187-.431.198-.938.189-1.465-.026-1.525-.621-2.854-1.494-3.95-2.595-1.074-1.078-1.953-2.402-2.614-3.936a2.185 2.185 0 01-.116-.39 2.82 2.82 0 00-.02-.09A.145.145 0 013 5.217v-.012c0-.722.66-1.588 1.411-1.855.658-.232.984.193 1.245.535zm4.517 3.059c-.003.124-.01.38-.271.471-.123.042-.229.037-.316-.015-.128-.077-.167-.223-.189-.357-.077-.484-.345-.733-.842-.782-.232-.023-.394-.18-.394-.38l.003-.045c.029-.241.206-.358.526-.347.335-.004.714.171 1.017.469.303.299.474.659.466.986z" fill="#B4B4B4"/><path fill-rule="evenodd" clip-rule="evenodd" d="M10 .8H6C4.563.8 3.566.802 2.815.903c-.728.098-1.105.275-1.37.541-.267.266-.444.643-.542 1.37C.802 3.567.8 4.565.8 6v3c0 1.437.002 2.434.103 3.185.098.728.275 1.105.541 1.37.266.267.643.444 1.37.542.752.101 1.75.103 3.186.103h4c1.437 0 2.434-.002 3.185-.103.728-.098 1.105-.275 1.37-.541.267-.266.444-.643.542-1.37.101-.752.103-1.75.103-3.186V6c0-1.437-.002-2.434-.103-3.185-.098-.728-.275-1.105-.541-1.37-.266-.267-.643-.444-1.37-.542C12.433.802 11.435.8 10 .8zM.879.879C0 1.757 0 3.172 0 6v3c0 2.828 0 4.243.879 5.121C1.757 15 3.172 15 6 15h4c2.828 0 4.243 0 5.121-.879C16 13.243 16 11.828 16 9V6c0-2.828 0-4.243-.879-5.121C14.243 0 12.828 0 10 0H6C3.172 0 1.757 0 .879.879z" fill="#B4B4B4"/></svg></svg>