<svg width="693" height="338" fill="none" xmlns="http://www.w3.org/2000/svg"><path d="M34.352 336.244s-58.053-71.896-23.222-140.313c34.831-68.418 101.013-52.183 193.897-121.758C317.791-10.295 396.97-14.935 497.615 21.99c56.894 20.875 66.182 106.684 156.744 160.027 81.643 48.089 15.093 129.876-27.864 142.632-42.96 12.756-71.986 12.756-71.986 12.756l-520.157-1.161Z" fill="#FFE6DC"/><path d="M378.837 181.672c-14.488 29.377-32.658 109.651-37.612 114.048-4.955 4.398-33.58 21.442-38.535 29.692-4.955 8.246-2.753 5.499-.549 6.048 2.201.551 126.617 1.099 126.617 1.099s-14.312-85.222-15.965-85.773c-1.652-.549-33.956-65.114-33.956-65.114Z" fill="#FF5C00"/><path d="M358.235 332.161c22.851.159 46.962.284 60.238.351L400.298 223.96c-9.692-18.77-21.46-42.288-21.46-42.288-1.826 3.705-3.712 8.216-5.621 13.284-1.884 81.529 9.873 104.382 1.042 118.911-6.892 11.336-13.181 16.407-16.024 18.294Z" fill="#CE5113"/><path d="M616.563 338H19.131a4.606 4.606 0 0 1-4.61-4.603 4.607 4.607 0 0 1 4.61-4.604H616.56a4.603 4.603 0 1 1 .003 9.207Z" fill="#364154"/><path d="M455.137 146.217c20.664 19.051 66.661 37.117 66.661 37.117s6.989 64.487 2.221 101.003c-4.768 36.516-2.12 43.922-2.12 43.922h-94.846s-12.73-17.643-36.03-72.5c-14.836-34.927-12.186-74.087-12.186-74.087l57.755-25.931 18.545-9.524Z" fill="#FF5C00"/><path d="M427.055 328.259h94.846s-2.65-7.409 2.121-43.922c3.926-30.067-.12-79.099-1.669-95.479l-8.625-3.693c-21.656 6.232-34.135 38.489-37.805 70.015-2.455 21.094-37.445 41.857-60.332 53.29 7.516 14.317 11.464 19.789 11.464 19.789Z" fill="#CE5113"/><path d="M403.804 80.023c-11.434 25.433 2.291 48.99 1.873 47.997-.416-.994 17.305-42.94 17.305-42.94l-19.178-5.057Z" fill="#443124"/><path d="m447.128 98.83 14.499 52.931a4.776 4.776 0 0 1-.917 4.286c-3.402 4.183-8.243 12.792-18.013 15.552-1.9.538-4.239.68-6.134.688a4.137 4.137 0 0 1-4.085-3.346l-9.714-50.203 24.364-19.909Z" fill="#F09959"/><path d="m444.358 103.255-5.3 2.171-16.294 13.314 8.747 44.51c14.831-9.238 16.996-15.469 12.847-59.995Z" fill="#E38540"/><path d="M446.596 122.245c-3.21 17.412-16.255 29.19-29.138 26.304-12.883-2.886-19.03-14.155-17.517-36.752 1.187-17.73 9.94-36.998 22.823-34.112 12.883 2.884 27.04 27.148 23.832 44.56Z" fill="#F09959"/><path d="M521.799 183.334c19.189 4.328 22.756 43.254 28.996 84.309.719 4.726 4.403 44.721 4.403 44.721s.367 7.331-6.973 10.996c-6.27 3.131-8.809 5.5-45.145 5.865-34.895.35-79.889-1.1-79.889-1.1s-.399-12.97 3.18-19.304c5.384-9.53 60.56-23.215 65.696-23.95.733-10.264-5.066-47.401 2.938-72.581 5.506-17.32 11.422-26.393 18.838-28.764 2.474-.788 5.113-.832 7.956-.192Z" fill="#FF5C00"/><path d="M442.923 328.918c17.202.259 40.814.504 60.157.309 36.336-.367 38.872-2.733 45.144-5.864 7.341-3.666 7.708-9.897 7.708-9.897s-3.709-42.558-4.403-47.287c-4.037-27.493-8.399-58.952-18.551-74.137 9.542 27.938 11.08 51.509 11.25 61.579.087 5.099-.384 12.082-1.875 16.958-1.65 5.408-5.872 8.798-12.479 6.964-13.212-3.666-29.729 4.033-29.729 4.033s12.479-4.401 24.225-.368c11.746 4.033 35.968 30.791 9.542 40.688-8.087 3.028-56.523 5.497-90.989 7.022Z" fill="#CE5113"/><path d="M429.307 310.043s4.894-8.308 14.926-8.308 9.299 16.373 7.831 21.751c-1.469 5.377-7.341 5.619-7.341 5.619l-21.533-.977 6.117-18.085Z" fill="#CE5113"/><path d="M407.479 332.837h-135.74a3.73 3.73 0 0 1-3.723-3.718v-1.069a3.73 3.73 0 0 1 3.723-3.718h135.74a3.733 3.733 0 0 1 3.724 3.718v1.069a3.73 3.73 0 0 1-3.724 3.718Z" fill="#657285"/><path d="M426.618 311.022c-21.043-7.576-26.563-4.723-31.32-6.109-11.746-3.42-14.68-.49-22.266 20.284-1.51 4.139 2.937 4.398 7.34 4.398 4.403 0 9.787-8.553 11.501-9.53 1.714-.977 6.362-1.467 6.362-1.467s-1.468 0-3.67 4.398c-2.201 4.397-4.893 6.109-1.468 6.109 3.424 0 3.915-5.619 10.277-4.398 6.362 1.222 3.915 4.398 19.819 4.156 15.904-.245 27.906 0 27.65-9.53-.245-9.043.758-13.563-7.831-15.152-6.607-1.224-16.394 6.841-16.394 6.841Z" fill="#F09959"/><path d="M426.894 311.022c14.07-1.589 9.94 15.915 8.471 17.381-1.468 1.467 7.834.515 7.834.515s4.369-7.022.699-15.085c-3.67-8.066-11.01-8.43-11.01-8.43l-6.24 3.42.246 2.199Z" fill="#A86B48"/><path d="M441.583 309.497c-.181 2.168-3.874 3.632-8.243 3.268-4.373-.365-7.77-2.419-7.586-4.59.181-2.168 3.874-3.632 8.243-3.268 4.37.368 7.767 2.422 7.586 4.59Z" fill="#364154"/><path d="M440.462 308.42c-.161 1.937-3.458 3.245-7.365 2.919-3.904-.325-6.939-2.162-6.777-4.099.161-1.937 3.461-3.245 7.365-2.92 3.907.326 6.942 2.16 6.777 4.1Z" fill="#657285"/><path d="M438.024 307.521c-.117 1.394-2.491 2.335-5.303 2.101-2.812-.234-4.997-1.556-4.88-2.95.117-1.394 2.492-2.335 5.304-2.101 2.811.234 4.996 1.556 4.879 2.95Z" fill="#F0CEB4"/><path d="M266.775 305.982H130.036c-7.192 0-13.359-5.202-14.661-12.366l-17.835-98.32c-1.68-9.271 5.351-17.818 14.661-17.818h136.741c7.193 0 13.36 5.202 14.661 12.366l17.835 98.317c1.678 9.274-5.353 17.821-14.663 17.821Z" fill="#364154"/><path d="m273.165 288.531-18.2-96.285c-1.327-7.017-7.622-12.11-14.962-12.11H101.041c-2.918 3.381-4.378 8.013-3.49 12.839l18.463 100.382c1.346 7.315 7.727 12.625 15.173 12.625h127.016c9.503 0 16.678-8.369 14.962-17.451Z" fill="#657285"/><path d="M240.192 319.149h-25.958c-4.629 0-8.383-4.116-8.383-9.198V262.55c0-8.086-5.975-14.64-13.343-14.64h-13.56c-7.368 0-13.343 6.554-13.343 14.64v53.084c0 9.079 6.736 16.421 15.007 16.363l70.844-.487c.003-6.825-5.041-12.361-11.264-12.361Z" fill="#364154"/><path d="M166.64 263.613v52.272c0 8.508 6.604 15.466 14.959 16.067l69.141-.431c-.008-1.13-5.456-3.193-12.189-3.193h-28.082c-5.008 0-9.068-4.055-9.068-9.056v-55.659c0-7.96-6.462-14.414-14.432-14.414h-5.897c-7.97 0-14.432 6.454-14.432 14.414Z" fill="#657285"/><path d="M311.359 313.126c10.45-5.797 23.219-3.866 27.862 1.932 4.645 5.797 5.417 9.663-5.03 9.663-10.448 0-31.345.774-34.829.387-3.48-.387 11.997-11.982 11.997-11.982Z" fill="#F09959"/><path d="M326.84 309.647c11.222-2.705 18.891 3.816 28.249 10.048 8.126 5.41 9.759 10.671.774 6.184-13.156-6.571-20.897-7.342-20.897-7.342l-8.126-8.89ZM316.618 313.09c-5.668 0-10.614-1.806-14.616-1.472-4.002.334-16.67 13.318-14.669 14.317.142.072.298.136.468.2 3.007 1.105 6.404-.12 8.098-2.836 1.792-2.872 4.71-6.218 8.104-5.021 5.668 1.998 11.615 1.806 11.615 1.806l1-6.994Z" fill="#F09959"/><path d="M313.297 327.04c-5.805-2.319 3.483-21.645 6.579-21.645 3.096 0 14.706 9.276 14.706 9.276s-2.731 1.539-11.997-1.545c-2.321-.773-4.258 12.369-6.967 13.914-2.709 1.544-2.321 0-2.321 0Z" fill="#F7A96F"/><path d="M399.93 121.972c-.541 21.28 6.719 24.879 11.799 27.768 5.077 2.889 26.953-1.884 30.163-7.147 8.216-13.465 1.302-26.021 3.138-25.831 1.839.189 3.517 5.433 8.31 12.235.446.634 3.559 4.837 3.723 3.44 2.224-19.057 12.159-24.974 9.793-44.248-1.745-14.208-10.774-13.08-10.774-13.08s-5.824-11.89-23.96-10.541c-12.15.904-22.982 5.633-35.505 8.85-12.527 3.22 14.817 31.574 31.063 21.214 16.247-10.359 8.224 12.458 10.787 14.228 2.564 1.77 1.235.234 2.408 11.912 1.176 11.676-13.671 19.299-17.927 20.298-13.605 3.196-15.881.955-18.86-4.163-2.589-4.434-4.158-14.935-4.158-14.935Z" fill="#443124"/><path d="M456.246 115.384c-1.56 5.363-5.375 8.828-8.519 7.74-3.143-1.088-3.238-5.447-2.867-11.684.334-5.622 5.375-8.828 8.519-7.74 3.143 1.088 4.428 6.321 2.867 11.684Z" fill="#F09959"/><path d="M162.444 95.612H46.288A2.286 2.286 0 0 1 44 93.327V43.403a2.286 2.286 0 0 1 2.288-2.285h116.156a2.286 2.286 0 0 1 2.288 2.285v49.92a2.285 2.285 0 0 1-2.288 2.288Z" fill="#FFE6DC"/><path d="M159.582 93.054H49.15a1.846 1.846 0 0 1-1.847-1.848V57.284c0-1.019.827-1.846 1.847-1.846h110.432c1.023 0 1.851.827 1.851 1.846v33.924a1.848 1.848 0 0 1-1.851 1.846ZM52.684 49.38h-2.681c-.566 0-1.026-.46-1.026-1.025v-2.204c0-.565.46-1.024 1.026-1.024h2.68c.567 0 1.026.459 1.026 1.024v2.204a1.026 1.026 0 0 1-1.025 1.025ZM61.28 49.38H58.6c-.566 0-1.026-.46-1.026-1.025v-2.204c0-.565.46-1.024 1.026-1.024h2.68c.566 0 1.026.459 1.026 1.024v2.204c0 .568-.457 1.025-1.025 1.025ZM69.881 49.38h-2.68c-.566 0-1.026-.46-1.026-1.025v-2.204c0-.565.457-1.024 1.025-1.024h2.681c.566 0 1.026.459 1.026 1.024v2.204c0 .568-.46 1.025-1.026 1.025Z" fill="#fff"/><path d="M156.787 63.68H96.418a1.811 1.811 0 0 1-1.806-1.804c0-.99.814-1.803 1.806-1.803h60.369a1.81 1.81 0 0 1 1.805 1.803c0 .994-.81 1.804-1.805 1.804ZM111.383 91.51H51.012a1.811 1.811 0 0 1-1.806-1.804c0-.991.814-1.804 1.806-1.804h60.371a1.81 1.81 0 0 1 1.806 1.804c0 .99-.814 1.803-1.806 1.803Z" fill="#FFE6DC"/><path d="M122.501 91.509h-6.245a.62.62 0 0 1-.618-.618v-2.374a.62.62 0 0 1 .618-.618h6.245a.62.62 0 0 1 .619.618v2.374a.62.62 0 0 1-.619.618ZM131.918 91.509h-6.248a.62.62 0 0 1-.618-.618v-2.374a.62.62 0 0 1 .618-.618h6.248a.62.62 0 0 1 .619.618v2.374a.62.62 0 0 1-.619.618Z" fill="#B7E1FF"/><path d="M157.37 71.54H57.399a1.229 1.229 0 0 1-1.226-1.225c0-.674.552-1.225 1.226-1.225h99.971a1.23 1.23 0 0 1 1.226 1.225 1.231 1.231 0 0 1-1.226 1.225ZM157.37 76.822H57.399a1.229 1.229 0 0 1-1.226-1.225c0-.673.552-1.224 1.226-1.224h99.971a1.23 1.23 0 0 1 1.226 1.224 1.231 1.231 0 0 1-1.226 1.225Z" fill="#FFE6DC"/><path d="M189.726 133.875H73.57a2.287 2.287 0 0 1-2.288-2.287v-49.92a2.289 2.289 0 0 1 2.288-2.288h116.156a2.29 2.29 0 0 1 2.291 2.288v49.92a2.293 2.293 0 0 1-2.291 2.287Z" fill="#657285"/><path d="M186.864 131.318H76.432a1.848 1.848 0 0 1-1.85-1.846V95.545a1.85 1.85 0 0 1 1.85-1.848h110.432c1.023 0 1.851.826 1.851 1.848v33.925a1.85 1.85 0 0 1-1.851 1.848ZM79.963 87.643h-2.68c-.566 0-1.026-.459-1.026-1.024v-2.204c0-.565.46-1.024 1.025-1.024h2.681c.566 0 1.026.459 1.026 1.024v2.204c0 .565-.46 1.024-1.026 1.024ZM88.563 87.643h-2.681c-.566 0-1.026-.459-1.026-1.024v-2.204c0-.565.46-1.024 1.026-1.024h2.68c.567 0 1.026.459 1.026 1.024v2.204c0 .565-.46 1.024-1.025 1.024ZM97.162 87.643h-2.68c-.566 0-1.026-.459-1.026-1.024v-2.204c0-.565.46-1.024 1.026-1.024h2.68c.566 0 1.026.459 1.026 1.024v2.204c0 .565-.46 1.024-1.026 1.024Z" fill="#fff"/><path d="M183.219 101.944h-60.371a1.812 1.812 0 0 1-1.806-1.804c0-.99.814-1.804 1.806-1.804h60.368c.992 0 1.806.813 1.806 1.804a1.807 1.807 0 0 1-1.803 1.804ZM138.663 129.77H78.294a1.811 1.811 0 0 1-1.806-1.803c0-.991.814-1.804 1.806-1.804h60.369c.992 0 1.805.813 1.805 1.804 0 .99-.81 1.803-1.805 1.803ZM148.934 129.77h-6.247c.512 0 .234-.278.234-.618v-2.374a.62.62 0 0 1 .618-.618h6.248a.62.62 0 0 1 .619.618v2.374c-.003.34-.282.618-1.472.618ZM158.35 129.77h-6.245a.62.62 0 0 1-.619-.618v-2.374a.62.62 0 0 1 .619-.618h6.245a.62.62 0 0 1 .619.618v2.374a.622.622 0 0 1-.619.618ZM184.649 109.801h-99.97a1.23 1.23 0 0 1-1.227-1.225c0-.674.552-1.225.374-1.225h99.97c1.524 0 2.076.551 2.076 1.225a1.225 1.225 0 0 1-1.223 1.225ZM183.798 115.083h-99.97c.178 0-.374-.551-.374-1.225 0-.673.552-1.224 1.226-1.224h99.971c.674 0 1.226.551 1.226 1.224-.003.674-.555 1.225-2.079 1.225ZM335.382 47.832h-99.651c-2.555 0-4.645-2.087-4.645-4.64V7.638c0-2.55 2.09-4.637 4.645-4.637h99.648c2.555 0 4.642 2.087 4.642 4.637v35.558c.003 2.55-2.087 4.637-4.639 4.637Z" fill="#657285"/><path d="M244.245 41.069v24.737l28.539-28.503c.003-.003-27.956 3.766-28.539 3.766Z" fill="#657285"/><path d="M330.452 43.387h-89.791a3.947 3.947 0 0 1-3.937-3.932v-28.08a3.947 3.947 0 0 1 3.937-3.933h89.794a3.947 3.947 0 0 1 3.937 3.933v28.08a3.95 3.95 0 0 1-3.94 3.932Z" fill="#fff"/><path d="M289.911 16.332h-44.117a1.938 1.938 0 0 1-1.934-1.932c0-1.063.87-1.931 1.934-1.931h44.117a1.94 1.94 0 0 1 1.934 1.931 1.94 1.94 0 0 1-1.934 1.932ZM326.76 23.721h-81.824a1.08 1.08 0 0 1-1.076-1.074v-.022c0-.59.485-1.075 1.076-1.075h81.824c.59 0 1.075.485 1.075 1.075v.022a1.08 1.08 0 0 1-1.075 1.074ZM326.76 27.927h-81.824a1.08 1.08 0 0 1-1.076-1.075v-.022c0-.59.485-1.074 1.076-1.074h81.824c.59 0 1.075.484 1.075 1.074v.022c0 .593-.485 1.075-1.075 1.075ZM309.847 41.843h-2.681c-.566 0-1.025-.46-1.025-1.025v-2.204c0-.565.459-1.024 1.025-1.024h2.681c.566 0 1.025.46 1.025 1.024v2.204c0 .565-.459 1.025-1.025 1.025ZM318.447 41.843h-2.681c-.566 0-1.026-.46-1.026-1.025v-2.204c0-.565.46-1.024 1.026-1.024h2.681c.565 0 1.025.46 1.025 1.024v2.204c0 .565-.46 1.025-1.025 1.025ZM327.046 41.843h-2.681c-.565 0-1.025-.46-1.025-1.025v-2.204c0-.565.46-1.024 1.025-1.024h2.681c.566 0 1.026.46 1.026 1.024v2.204c0 .565-.46 1.025-1.026 1.025Z" fill="#657285"/><path d="M251 120c0 9.941-8.059 18-18 18s-18-8.059-18-18 8.059-18 18-18 18 8.059 18 18Z" fill="#FF5C00"/><path d="M231.214 126.651h-.052a1.38 1.38 0 0 1-.979-.464l-4.891-5.557a1.37 1.37 0 1 1 2.058-1.808l3.934 4.471 9.413-9.211a1.37 1.37 0 0 1 1.936.019 1.374 1.374 0 0 1-.019 1.94l-10.444 10.222a1.383 1.383 0 0 1-.956.388Z" fill="#fff"/></svg>