<svg width="240" height="39" fill="none" xmlns="http://www.w3.org/2000/svg"><path d="m20 0 4.702 13.19 14.32.284-11.413 8.436 4.147 13.366L20 27.3 8.244 35.276l4.148-13.366L.979 13.474l14.319-.284L20 0ZM70 0l4.702 13.19 14.32.284-11.413 8.436 4.147 13.366L70 27.3l-11.756 7.976 4.148-13.366-11.413-8.436 14.319-.284L70 0ZM120 0l4.702 13.19 14.319.284-11.413 8.436 4.148 13.366L120 27.3l-11.756 7.976 4.148-13.366-11.413-8.436 14.319-.284L120 0ZM170 0l4.702 13.19 14.319.284-11.413 8.436 4.148 13.366L170 27.3l-11.756 7.976 4.148-13.366-11.413-8.436 14.319-.284L170 0Z" fill="#FF5C00"/><path d="m220 0 4.702 13.19 14.319.284-11.413 8.436 4.148 13.366L220 27.3l-11.756 7.976 4.148-13.366-11.413-8.436 14.319-.284L220 0Z" fill="#DCDCDC"/><path d="m220 0-4.702 13.19-14.319.284 11.413 8.436-4.148 13.366L220 27.3V0Z" fill="#FF5C00"/></svg>