<svg width="144" height="24" fill="none" xmlns="http://www.w3.org/2000/svg"><path d="M5.149 23H.104L7.79.73h6.068L21.536 23H16.49L10.912 5.82h-.174L5.15 23Zm-.315-8.753H16.75v3.675H4.834v-3.675ZM24.216 23V.73h4.709v9.82h.293L37.232.73h5.644l-8.264 9.972L42.974 23H37.34l-6.1-9.156-2.316 2.827V23h-4.709Zm21.112 0V.73h8.916c1.639 0 3.005.243 4.1.729 1.094.486 1.917 1.16 2.468 2.022.551.856.827 1.842.827 2.958 0 .87-.175 1.635-.522 2.295a4.505 4.505 0 0 1-1.436 1.609 5.882 5.882 0 0 1-2.066.88v.218a4.988 4.988 0 0 1 2.382.718c.746.442 1.352 1.062 1.816 1.86.463.79.695 1.732.695 2.826 0 1.182-.293 2.237-.88 3.165-.58.92-1.44 1.649-2.578 2.185-1.138.537-2.54.805-4.208.805h-9.514Zm4.708-3.85h3.839c1.312 0 2.269-.25 2.87-.75.602-.507.903-1.181.903-2.022 0-.616-.149-1.16-.446-1.631-.297-.471-.721-.841-1.272-1.11-.544-.268-1.193-.402-1.947-.402h-3.947v5.916Zm0-9.1h3.49c.646 0 1.218-.113 1.719-.338a2.858 2.858 0 0 0 1.196-.978c.297-.42.446-.925.446-1.512 0-.805-.287-1.453-.86-1.946-.565-.493-1.37-.74-2.413-.74h-3.578v5.513Z" fill="#FF5C00"/><path d="m69.595.73 5.383 16.92h.207L80.578.73h5.22L78.12 23h-6.068L64.365.73h5.23Zm38.091 11.135c0 2.429-.46 4.495-1.381 6.198-.913 1.704-2.16 3.005-3.74 3.904-1.573.892-3.342 1.338-5.306 1.338-1.98 0-3.756-.45-5.329-1.349s-2.816-2.2-3.73-3.904c-.913-1.703-1.37-3.766-1.37-6.187 0-2.428.457-4.494 1.37-6.198.914-1.703 2.157-3.001 3.73-3.893C93.503.875 95.28.426 97.258.426c1.965 0 3.734.45 5.307 1.348 1.58.892 2.827 2.19 3.74 3.893.921 1.704 1.381 3.77 1.381 6.198Zm-4.773 0c0-1.573-.236-2.9-.707-3.98-.464-1.08-1.12-1.899-1.968-2.457-.848-.558-1.841-.837-2.98-.837-1.138 0-2.13.279-2.979.837-.848.558-1.508 1.377-1.979 2.457-.464 1.08-.696 2.407-.696 3.98s.232 2.9.696 3.98c.471 1.08 1.13 1.9 1.979 2.457.848.559 1.841.838 2.98.838 1.138 0 2.13-.28 2.979-.838.848-.558 1.504-1.377 1.968-2.457.471-1.08.707-2.407.707-3.98ZM111.174 23V.73h4.709v18.388h9.547V23h-14.256Zm13.745-18.388V.73h18.29v3.882h-6.818V23h-4.654V4.612h-6.818Z" fill="#00000F"/></svg>