<svg xmlns="http://www.w3.org/2000/svg" width="28" height="28"><path fill="#f5f5f5" d="M25.193 19.51a13.95 13.95 0 0 1 2.799 6.942c.04.367-.068.735-.3 1.024a1.409 1.409 0 0 1-.938.516h-.155a1.412 1.412 0 0 1-.944-.354 1.397 1.397 0 0 1-.463-.892 11.173 11.173 0 0 0-3.683-7.095 11.29 11.29 0 0 0-7.502-2.849 11.29 11.29 0 0 0-7.501 2.849 11.173 11.173 0 0 0-3.684 7.095c-.04.371-.228.711-.521.945a1.421 1.421 0 0 1-2.245-.705 1.4 1.4 0 0 1-.048-.548 13.95 13.95 0 0 1 2.785-6.926 14.06 14.06 0 0 1 5.966-4.519 8.394 8.394 0 0 1-2.88-4.234 8.351 8.351 0 0 1 .123-5.11 8.4 8.4 0 0 1 3.081-4.093 8.473 8.473 0 0 1 9.792 0 8.4 8.4 0 0 1 3.081 4.092 8.352 8.352 0 0 1 .123 5.111 8.394 8.394 0 0 1-2.88 4.234 14.061 14.061 0 0 1 5.994 4.517zm-7.235-7.15a5.575 5.575 0 0 0 .7-7.067 5.62 5.62 0 0 0-2.525-2.06A5.656 5.656 0 0 0 10 4.444a5.568 5.568 0 0 0-1.22 6.1 5.603 5.603 0 0 0 2.073 2.511 5.65 5.65 0 0 0 7.106-.696z"/></svg>