<?xml version="1.0" encoding="utf-8"?><svg viewBox="0 0 512.01 512.01" xmlns="http://www.w3.org/2000/svg" xmlns:xlink="http://www.w3.org/1999/xlink"><style>:root>svg{display:none}:root>svg:target{display:block}</style><svg viewBox="0 0 21 10" id="arrow" xmlns="http://www.w3.org/2000/svg"><path d="M18.668 5.659H0V4.341h18.669L15.61.876 16.59 0 21 5l-4.411 5-.978-.876 3.057-3.465z"/></svg><svg viewBox="0 0 8 14" id="arrow_left" xmlns="http://www.w3.org/2000/svg"><path d="M1 7l-.46-.46a.65.65 0 000 .92L1 7zm6.46-5.54a.65.65 0 00-.92-.92l.92.92zm-.92 12a.65.65 0 10.92-.92l-.92.92zm-5.08-6l6-6-.92-.92-6 6 .92.92zm6 5.08l-6-6-.92.92 6 6 .92-.92z"/></svg><svg viewBox="0 0 8 14" id="arrow_right" xmlns="http://www.w3.org/2000/svg"><path d="M7 7l.46-.46a.65.65 0 010 .92L7 7zM.54 1.46a.65.65 0 01.92-.92l-.92.92zm.92 12a.65.65 0 11-.92-.92l.92.92zm5.08-6l-6-6 .92-.92 6 6-.92.92zm-6 5.08l6-6 .92.92-6 6-.92-.92z"/></svg><svg viewBox="0 0 16 16" id="cart" xmlns="http://www.w3.org/2000/svg"><path fill-rule="evenodd" clip-rule="evenodd" d="M6.834 0C5.397 0 4.232 1.147 4.232 2.561v.876h-.823c-.962 0-1.783.686-1.938 1.62L.026 13.756C-.169 14.932.753 16 1.964 16h12.072c1.21 0 2.133-1.068 1.938-2.245l-1.445-8.697a1.955 1.955 0 00-1.938-1.621h-.823V2.56c0-1.413-1.165-2.56-2.602-2.56H6.834zm3.658 4.693V7h1.276V4.693h.823c.337 0 .624.24.678.567l1.445 8.698a.68.68 0 01-.678.786H1.964a.68.68 0 01-.678-.786L2.731 5.26a.684.684 0 01.678-.567h.823V7h1.276V4.693h4.984zm0-1.256V2.56c0-.72-.594-1.305-1.326-1.305H6.834c-.732 0-1.326.584-1.326 1.305v.876h4.984z"/></svg><svg viewBox="0 0 11 8" id="check" xmlns="http://www.w3.org/2000/svg"><path d="M10.354 1.354a.5.5 0 00-.708-.708l.708.708zM4 7l-.354.354a.5.5 0 00.708 0L4 7zM1.354 3.646a.5.5 0 10-.708.708l.708-.708zm8.292-3l-6 6 .708.708 6-6-.708-.708zm-5.292 6l-3-3-.708.708 3 3 .708-.708z"/></svg><svg viewBox="0 0 451.847 451.847" id="cmn--arr_1_down" xmlns="http://www.w3.org/2000/svg"><path d="M225.923 354.706c-8.098 0-16.195-3.092-22.369-9.263L9.27 151.157c-12.359-12.359-12.359-32.397 0-44.751 12.354-12.354 32.388-12.354 44.748 0l171.905 171.915 171.906-171.909c12.359-12.354 32.391-12.354 44.744 0 12.365 12.354 12.365 32.392 0 44.751L248.292 345.449c-6.177 6.172-14.274 9.257-22.369 9.257z"/></svg><svg viewBox="0 0 451.847 451.847" id="cmn--arr_1_left" xmlns="http://www.w3.org/2000/svg"><path d="M97.141 225.92c0-8.095 3.091-16.192 9.259-22.366L300.689 9.27c12.359-12.359 32.397-12.359 44.751 0 12.354 12.354 12.354 32.388 0 44.748L173.525 225.92l171.903 171.909c12.354 12.354 12.354 32.391 0 44.744-12.354 12.365-32.386 12.365-44.745 0l-194.29-194.281c-6.167-6.177-9.252-14.274-9.252-22.372z"/></svg><svg viewBox="0 0 451.846 451.847" id="cmn--arr_1_right" xmlns="http://www.w3.org/2000/svg"><path d="M345.441 248.292L151.154 442.573c-12.359 12.365-32.397 12.365-44.75 0-12.354-12.354-12.354-32.391 0-44.744L278.318 225.92 106.409 54.017c-12.354-12.359-12.354-32.394 0-44.748 12.354-12.359 32.391-12.359 44.75 0l194.287 194.284c6.177 6.18 9.262 14.271 9.262 22.366 0 8.099-3.091 16.196-9.267 22.373z"/></svg><svg viewBox="0 0 451.847 451.846" id="cmn--arr_1_up" xmlns="http://www.w3.org/2000/svg"><path d="M248.292 106.406l194.281 194.29c12.365 12.359 12.365 32.391 0 44.744-12.354 12.354-32.391 12.354-44.744 0L225.923 173.529 54.018 345.44c-12.36 12.354-32.395 12.354-44.748 0-12.359-12.354-12.359-32.391 0-44.75L203.554 106.4c6.18-6.174 14.271-9.259 22.369-9.259 8.095 0 16.192 3.091 22.369 9.265z"/></svg><svg viewBox="0 0 256 256" id="cmn--arrow_down" xmlns="http://www.w3.org/2000/svg"><path d="M225.813 48.907L128 146.72 30.187 48.907 0 79.093l128 128 128-128z"/></svg><svg viewBox="0 0 256 256" id="cmn--arrow_left" xmlns="http://www.w3.org/2000/svg"><path d="M207.093 30.187L176.907 0l-128 128 128 128 30.186-30.187L109.28 128z"/></svg><svg viewBox="0 0 256 256" id="cmn--arrow_right" xmlns="http://www.w3.org/2000/svg"><path d="M79.093 0L48.907 30.187 146.72 128l-97.813 97.813L79.093 256l128-128z"/></svg><svg viewBox="0 0 256 256" id="cmn--arrow_up" xmlns="http://www.w3.org/2000/svg"><path d="M128 48.907l-128 128 30.187 30.186L128 109.28l97.813 97.813L256 176.907z"/></svg><svg viewBox="0 0 16 16" id="cmn--badge_lock" xmlns="http://www.w3.org/2000/svg"><path fill-rule="evenodd" clip-rule="evenodd" d="M1.805.862l-.943.943 2.71 2.71c-.253.21-.502.434-.75.673A15.535 15.535 0 00.772 7.64L.542 8l.23.359c.103.161.292.432.557.777.44.57.94 1.141 1.493 1.676 1.62 1.567 3.36 2.52 5.178 2.52 1.147 0 2.263-.379 3.337-1.053l2.858 2.858.943-.942L1.805.862zm8.558 10.444l-1.008-1.008a2.667 2.667 0 01-3.652-3.652L4.52 5.463c-.258.208-.515.437-.77.683A14.218 14.218 0 002.143 8 14.216 14.216 0 003.75 9.854C5.145 11.205 6.597 12 8 12c.779 0 1.572-.245 2.363-.694zm-3.651-3.65a1.335 1.335 0 001.633 1.633L6.712 7.655zm6.687 2.938l-.943-.942A14.4 14.4 0 0013.856 8a14.22 14.22 0 00-1.605-1.854C10.855 4.796 9.403 4 8 4c-.348 0-.7.05-1.052.144L5.893 3.089A5.658 5.658 0 018 2.667c1.818 0 3.557.954 5.178 2.52a15.542 15.542 0 012.05 2.454l.23.36-.23.359c-.103.161-.292.432-.557.777-.381.493-.807.987-1.272 1.457z"/><path fill-rule="evenodd" clip-rule="evenodd" d="M1.805.862l-.943.943 2.71 2.71c-.253.21-.502.434-.75.673A15.535 15.535 0 00.772 7.64L.542 8l.23.359c.103.161.292.432.557.777.44.57.94 1.141 1.493 1.676 1.62 1.567 3.36 2.52 5.178 2.52 1.147 0 2.263-.379 3.337-1.053l2.858 2.858.943-.942L1.805.862zm8.558 10.444l-1.008-1.008a2.667 2.667 0 01-3.652-3.652L4.52 5.463c-.258.208-.515.437-.77.683A14.218 14.218 0 002.143 8 14.216 14.216 0 003.75 9.854C5.145 11.205 6.597 12 8 12c.779 0 1.572-.245 2.363-.694zm-3.651-3.65a1.335 1.335 0 001.633 1.633L6.712 7.655zm6.687 2.938l-.943-.942A14.4 14.4 0 0013.856 8a14.22 14.22 0 00-1.605-1.854C10.855 4.796 9.403 4 8 4c-.348 0-.7.05-1.052.144L5.893 3.089A5.658 5.658 0 018 2.667c1.818 0 3.557.954 5.178 2.52a15.542 15.542 0 012.05 2.454l.23.36-.23.359c-.103.161-.292.432-.557.777-.381.493-.807.987-1.272 1.457z"/></svg><svg viewBox="0 0 20 14" id="cmn--badge_unlock" xmlns="http://www.w3.org/2000/svg"><path fill-rule="evenodd" clip-rule="evenodd" d="M10 .333c2.273 0 4.447 1.192 6.472 3.151a19.43 19.43 0 011.867 2.095c.332.431.568.77.697.972l.287.449-.287.449a19.432 19.432 0 01-2.563 3.067c-2.026 1.958-4.2 3.15-6.473 3.15-2.273 0-4.446-1.192-6.472-3.15A19.424 19.424 0 011.662 8.42a14.57 14.57 0 01-.697-.971l-.287-.45.287-.448c.129-.202.365-.541.697-.972a19.42 19.42 0 011.866-2.095C5.554 1.525 7.728.333 10 .333zm7.019 6.264a17.765 17.765 0 00-1.705-1.915C13.569 2.995 11.754 2 10 2s-3.568.995-5.313 2.682A17.772 17.772 0 002.681 7a17.774 17.774 0 002.007 2.318C6.431 11.003 8.245 12 10 12c1.755 0 3.57-.996 5.314-2.683A17.767 17.767 0 0017.32 7a17.026 17.026 0 00-.301-.403zM6.667 7a3.333 3.333 0 106.666 0 3.333 3.333 0 00-6.666 0zm5 0a1.667 1.667 0 11-3.333 0 1.667 1.667 0 013.333 0z"/></svg><svg viewBox="0 0 78.369 78.369" id="cmn--check" xmlns="http://www.w3.org/2000/svg"><path d="M78.049 19.015L29.458 67.606a1.094 1.094 0 01-1.548 0L.32 40.015a1.094 1.094 0 010-1.547l6.704-6.704a1.095 1.095 0 011.548 0l20.113 20.112 41.113-41.113a1.095 1.095 0 011.548 0l6.703 6.704a1.094 1.094 0 010 1.548z"/></svg><svg viewBox="0 0 512 512" id="cmn--circle" xmlns="http://www.w3.org/2000/svg"><path d="M256 0C115.39 0 0 115.39 0 256s115.39 256 256 256 256-115.39 256-256S396.61 0 256 0z"/></svg><svg viewBox="0 0 12 12" id="cmn--close" xmlns="http://www.w3.org/2000/svg"><path d="M12 10.735L1.267 0 0 1.265 10.736 12 12 10.735z"/><path d="M12 1.265L10.735 0 0 10.735 1.265 12 12 1.265z"/></svg><svg viewBox="0 0 32 32" id="cmn--close_round" xmlns="http://www.w3.org/2000/svg"><path d="M6.1 25.9a1.5 1.5 0 010-2.122L23.778 6.101A1.5 1.5 0 1125.9 8.22L8.222 25.9a1.5 1.5 0 01-2.122 0z"/><path d="M25.9 25.9a1.5 1.5 0 01-2.122 0L6.101 8.221A1.5 1.5 0 118.22 6.1L25.9 23.778a1.5 1.5 0 010 2.121z"/></svg><svg viewBox="0 0 284.9 284.9" id="cmn--gotop" xmlns="http://www.w3.org/2000/svg"><path d="M3.5 210.8l14.4 14.1c1.9 1.9 4.1 2.8 6.6 2.8s4.7-1 6.5-2.9l111.2-113.2 113.2 111.2c1.9 1.9 4.1 2.8 6.6 2.8s4.7-1 6.5-2.9l14.1-14.4c1.9-1.9 2.8-4.1 2.8-6.6s-1-4.7-2.9-6.5l-134.1-132c-1.9-1.9-4.1-2.8-6.6-2.8s-4.7 1-6.5 2.9L3.4 197.6c-1.9 1.9-2.8 4.1-2.8 6.6.1 2.5 1 4.7 2.9 6.6z"/></svg><svg viewBox="0 0 512 512" id="cmn--location" xmlns="http://www.w3.org/2000/svg"><path d="M256 0C153.755 0 70.573 83.182 70.573 185.426c0 126.888 165.939 313.167 173.004 321.035 6.636 7.391 18.222 7.378 24.846 0 7.065-7.868 173.004-194.147 173.004-321.035C441.425 83.182 358.244 0 256 0zm0 278.719c-51.442 0-93.292-41.851-93.292-93.293S204.559 92.134 256 92.134s93.291 41.851 93.291 93.293-41.85 93.292-93.291 93.292z"/></svg><svg viewBox="0 0 14 20" id="cmn--pin" xmlns="http://www.w3.org/2000/svg"><path fill-rule="evenodd" clip-rule="evenodd" d="M7 0C3.1 0 0 3.1 0 7c0 5.2 7 13 7 13s7-7.7 7-13c0-3.9-3.1-7-7-7zm0 9.5C5.6 9.5 4.5 8.4 4.5 7S5.6 4.5 7 4.5 9.5 5.6 9.5 7 8.4 9.5 7 9.5z"/></svg><svg viewBox="0 0 512.002 512.002" id="cmn--rating" xmlns="http://www.w3.org/2000/svg"><path d="M511.267 197.258a14.995 14.995 0 00-12.107-10.209l-158.723-23.065-70.985-143.827a14.998 14.998 0 00-26.901 0l-70.988 143.827-158.72 23.065a14.998 14.998 0 00-8.312 25.585l114.848 111.954-27.108 158.083a14.999 14.999 0 0021.763 15.812l141.967-74.638 141.961 74.637a15 15 0 0021.766-15.813l-27.117-158.081 114.861-111.955a14.994 14.994 0 003.795-15.375z"/></svg><svg viewBox="0 0 20 20" id="cmn--search" xmlns="http://www.w3.org/2000/svg"><path fill-rule="evenodd" clip-rule="evenodd" d="M15.219 8.92a6.311 6.311 0 00-6.301-6.305 6.31 6.31 0 00-6.309 6.296 6.31 6.31 0 006.311 6.314 6.31 6.31 0 006.299-6.306zm.854 5.32l3.013 3.008.48.48c.554.557.57 1.37.039 1.895-.526.52-1.331.5-1.88-.047a2592.531 2592.531 0 01-3.315-3.318c-.06-.059-.105-.133-.153-.194a8.934 8.934 0 01-12.293-1.566c-2.848-3.552-2.577-8.685.672-11.897 3.267-3.229 8.327-3.482 11.899-.59a8.91 8.91 0 011.538 12.228z"/></svg><svg viewBox="0 0 199.404 199.404" id="cmn--select" xmlns="http://www.w3.org/2000/svg"><path d="M199.404 63.993L171.12 35.709l-71.418 71.418-71.418-71.418L0 63.993l99.702 99.702z"/></svg><svg viewBox="0 0 512.011 512.011" id="cmn--select_1" xmlns="http://www.w3.org/2000/svg"><path d="M505.755 123.592c-8.341-8.341-21.824-8.341-30.165 0L256.005 343.176 36.421 123.592c-8.341-8.341-21.824-8.341-30.165 0s-8.341 21.824 0 30.165l234.667 234.667a21.275 21.275 0 0015.083 6.251 21.275 21.275 0 0015.083-6.251l234.667-234.667c8.34-8.341 8.34-21.824-.001-30.165z"/></svg><svg viewBox="0 0 451.847 451.847" id="cmn--select_2" xmlns="http://www.w3.org/2000/svg"><path d="M225.923 354.706c-8.098 0-16.195-3.092-22.369-9.263L9.27 151.157c-12.359-12.359-12.359-32.397 0-44.751 12.354-12.354 32.388-12.354 44.748 0l171.905 171.915 171.906-171.909c12.359-12.354 32.391-12.354 44.744 0 12.365 12.354 12.365 32.392 0 44.751L248.292 345.449c-6.177 6.172-14.274 9.257-22.369 9.257z"/></svg><svg viewBox="0 0 284.929 284.929" id="cmn--select_3" xmlns="http://www.w3.org/2000/svg"><path d="M282.082 76.511l-14.274-14.273c-1.902-1.906-4.093-2.856-6.57-2.856-2.471 0-4.661.95-6.563 2.856L142.466 174.441 30.262 62.241c-1.903-1.906-4.093-2.856-6.567-2.856-2.475 0-4.665.95-6.567 2.856L2.856 76.515C.95 78.417 0 80.607 0 83.082c0 2.473.953 4.663 2.856 6.565l133.043 133.046c1.902 1.903 4.093 2.854 6.567 2.854s4.661-.951 6.562-2.854L282.082 89.647c1.902-1.903 2.847-4.093 2.847-6.565 0-2.475-.945-4.665-2.847-6.571z"/></svg><svg viewBox="0 0 23 25" id="cmn--upload" xmlns="http://www.w3.org/2000/svg"><path d="M21 11.2L10.65 21.55a5.09 5.09 0 01-7.2 0 5.09 5.09 0 010-7.2L14.7 3.1a3.183 3.183 0 014.5 4.5l-9.45 9.45a1.276 1.276 0 01-1.8 0 1.276 1.276 0 010-1.8L16.5 6.7l-1.35-1.35L6.6 13.9a3.183 3.183 0 004.5 4.5l9.45-9.45a5.09 5.09 0 000-7.2 5.09 5.09 0 00-7.2 0L2.1 13a6.996 6.996 0 000 9.9 6.996 6.996 0 009.9 0l10.35-10.35L21 11.2z"/></svg><svg viewBox="0 0 10 10" id="cross" xmlns="http://www.w3.org/2000/svg"><path d="M1.078.185a.631.631 0 10-.893.892L4.108 5 .185 8.923a.631.631 0 00.892.892L5 5.892l3.923 3.923a.631.631 0 10.892-.892L5.893 5l3.922-3.923a.631.631 0 10-.893-.892L5 4.107z"/></svg><svg viewBox="0 0 20 36" id="half_star" xmlns="http://www.w3.org/2000/svg"><path d="M20 0l-4.702 13.19-14.32.284 11.414 8.436-4.148 13.366L20 27.3V0z"/></svg><svg viewBox="0 0 20 26" id="pin" xmlns="http://www.w3.org/2000/svg"><circle cx="9.999" cy="10.404" r="4.167" stroke="#FF5C00" stroke-width="2.1"/><path d="M9.874 24.655l-.006-.004-.006-.005c-.133-.087-2.335-1.577-4.491-4.143-2.16-2.572-4.197-6.127-4.197-10.371a8.825 8.825 0 0117.651 0c0 4.166-2.03 7.718-4.194 10.311-2.158 2.588-4.362 4.116-4.5 4.208l-.006.004a.224.224 0 01-.25 0z" stroke="#FF5C00" stroke-width="2.1"/></svg><svg viewBox="0 0 16 16" id="search" xmlns="http://www.w3.org/2000/svg"><path fill-rule="evenodd" clip-rule="evenodd" d="M12.355 13.277a7.519 7.519 0 11.922-.922L16 15.078l-.922.922-2.723-2.723zm1.38-5.758a6.216 6.216 0 11-12.432 0 6.216 6.216 0 0112.432 0z"/></svg><svg viewBox="0 0 40 36" id="star" xmlns="http://www.w3.org/2000/svg"><path d="M20 0l4.702 13.19 14.32.284-11.413 8.436 4.147 13.366L20 27.3 8.244 35.276l4.148-13.366L.979 13.474l14.319-.284L20 0z"/></svg><svg viewBox="0 0 12 13" id="tickmark" xmlns="http://www.w3.org/2000/svg"><path d="M5.146 8.5l-.468.451.468.486.468-.486-.468-.451zm.468-.451L3.468 5.822l-.936.902 2.146 2.227.936-.902zm2.918-4l-3.854 4 .936.902 3.854-4-.936-.902z"/><circle cx="6" cy="6.5" r="5.5" stroke="#FF5C00"/></svg><svg viewBox="0 0 22 21" id="trolley" xmlns="http://www.w3.org/2000/svg"><path d="M21 14h-2.18a3 3 0 00.18-1V8a3 3 0 00-3-3h-6a3 3 0 00-3 3v5a3 3 0 00.18 1H6a1 1 0 01-1-1V3a3 3 0 00-3-3H1a1 1 0 000 2h1a1 1 0 011 1v10a3 3 0 002.22 2.88 3 3 0 105.6.12h3.36a3 3 0 105.64 0H21a1 1 0 000-2zM8 18a1 1 0 110-2 1 1 0 010 2zm2-4a1 1 0 01-1-1V8a1 1 0 011-1h6a1 1 0 011 1v5a1 1 0 01-1 1h-6zm7 4a1 1 0 110-2 1 1 0 010 2z"/></svg><svg viewBox="0 0 24 19" id="truck" xmlns="http://www.w3.org/2000/svg"><path d="M23.924 9.13l-.066-.116a.637.637 0 00-.076-.147l-2.618-3.378a3.25 3.25 0 00-1.155-.932 3.363 3.363 0 00-1.463-.335h-2.182V3.167c0-.84-.345-1.646-.959-2.24A3.33 3.33 0 0013.091 0H3.273c-.868 0-1.7.334-2.314.927A3.116 3.116 0 000 3.167v11.61c0 .28.115.55.32.747.204.198.482.31.77.31h1.092c0 .84.345 1.645.958 2.239A3.329 3.329 0 005.455 19c.868 0 1.7-.334 2.314-.927a3.12 3.12 0 00.958-2.24h6.546c0 .84.345 1.646.958 2.24a3.329 3.329 0 002.314.927c.868 0 1.7-.334 2.315-.927a3.12 3.12 0 00.958-2.24h1.091c.29 0 .567-.11.771-.309.205-.198.32-.466.32-.746V9.5a1.024 1.024 0 00-.076-.37zm-18.47 7.76a1.12 1.12 0 01-.606-.178 1.056 1.056 0 01-.401-.474 1.024 1.024 0 01-.062-.61c.042-.204.146-.392.298-.54a1.124 1.124 0 011.189-.229c.2.08.37.215.49.389a1.031 1.031 0 01-.136 1.333 1.11 1.11 0 01-.771.309zm8.728-3.167H7.876a3.273 3.273 0 00-1.097-.766 3.367 3.367 0 00-2.649 0c-.417.179-.79.44-1.097.766h-.851V3.167c0-.28.115-.549.32-.747a1.11 1.11 0 01.77-.309h9.819c.29 0 .567.111.771.31.205.197.32.466.32.746v10.555zm2.182-7.389h2.181a1.108 1.108 0 01.873.422l1.31 1.69h-4.364V6.332zm2.181 10.556a1.12 1.12 0 01-.606-.178 1.056 1.056 0 01-.401-.474 1.024 1.024 0 01-.063-.61c.043-.204.146-.392.3-.54a1.124 1.124 0 011.189-.229c.198.08.369.215.489.389a1.031 1.031 0 01-.136 1.333 1.11 1.11 0 01-.771.309zm3.273-3.167h-.85a3.317 3.317 0 00-2.253-1.033 3.34 3.34 0 00-2.351.801v-2.934h5.454v3.166z"/></svg><svg viewBox="0 0 16 15" id="viber" xmlns="http://www.w3.org/2000/svg"><path d="M8.622 4.274c1.366-.012 2.618 1.152 2.791 2.593.003.029.008.06.014.093.012.071.024.145.024.22 0 .295-.208.374-.331.395a.383.383 0 01-.3-.057c-.134-.098-.157-.27-.176-.409-.006-.04-.011-.078-.018-.11-.29-1.296-.745-1.732-2.029-1.945a1.178 1.178 0 00-.11-.01c-.154-.01-.474-.029-.474-.372a.59.59 0 01.008-.091c.048-.32.34-.31.48-.305.04.001.077.003.102 0a.12.12 0 01.019-.002z"/><path d="M11.914 7.263c-.003-.038-.005-.074-.01-.105-.327-2.126-1.335-3.104-3.478-3.376a1.271 1.271 0 00-.128-.006c-.167-.002-.516-.008-.523-.382v-.012c0-.117.035-.21.105-.277.122-.116.303-.108.448-.102l.1.003c2.191-.027 4.179 1.87 4.253 4.06l-.001.027a.196.196 0 00-.002.026c0 .022.002.049.004.077.002.035.005.074.005.113 0 .35-.248.416-.396.424-.341.02-.365-.31-.377-.47zM5.656 3.885c.035.046.07.092.106.136.187.232.359.48.525.718l.104.149c.215.306.32.58.32.84 0 .35-.194.656-.575.908-.17.112-.252.247-.252.414 0 .099.028.21.084.333.448.988 1.135 1.694 2.041 2.097.438.195.725.131.958-.212.132-.195.378-.557.85-.532.535.03 2.146 1.211 2.33 1.709.077.21.078.432.001.66-.192.571-.53.982-.977 1.187-.431.198-.938.189-1.465-.026-1.525-.621-2.854-1.494-3.95-2.595-1.074-1.078-1.953-2.402-2.614-3.936a2.185 2.185 0 01-.116-.39 2.82 2.82 0 00-.02-.09A.145.145 0 013 5.217v-.012c0-.722.66-1.588 1.411-1.855.658-.232.984.193 1.245.535zm4.517 3.059c-.003.124-.01.38-.271.471-.123.042-.229.037-.316-.015-.128-.077-.167-.223-.189-.357-.077-.484-.345-.733-.842-.782-.232-.023-.394-.18-.394-.38l.003-.045c.029-.241.206-.358.526-.347.335-.004.714.171 1.017.469.303.299.474.659.466.986z"/><path fill-rule="evenodd" clip-rule="evenodd" d="M10 .8H6C4.563.8 3.566.802 2.815.903c-.728.098-1.105.275-1.37.541-.267.266-.444.643-.542 1.37C.802 3.567.8 4.565.8 6v3c0 1.437.002 2.434.103 3.185.098.728.275 1.105.541 1.37.266.267.643.444 1.37.542.752.101 1.75.103 3.186.103h4c1.437 0 2.434-.002 3.185-.103.728-.098 1.105-.275 1.37-.541.267-.266.444-.643.542-1.37.101-.752.103-1.75.103-3.186V6c0-1.437-.002-2.434-.103-3.185-.098-.728-.275-1.105-.541-1.37-.266-.267-.643-.444-1.37-.542C12.433.802 11.435.8 10 .8zM.879.879C0 1.757 0 3.172 0 6v3c0 2.828 0 4.243.879 5.121C1.757 15 3.172 15 6 15h4c2.828 0 4.243 0 5.121-.879C16 13.243 16 11.828 16 9V6c0-2.828 0-4.243-.879-5.121C14.243 0 12.828 0 10 0H6C3.172 0 1.757 0 .879.879z"/></svg></svg>